<svg xmlns="http://www.w3.org/2000/svg" version="1.1" xmlns:xlink="http://www.w3.org/1999/xlink" xmlns:svgjs="http://svgjs.dev/svgjs" width="2000" height="1500" viewBox="0 0 2000 1500"><rect width="2000" height="1500" fill="#f97316"></rect><g transform="matrix(0.4677268475210477,0,0,0.4677268475210477,533.0082642126259,250.40485829959522)"><svg viewBox="0 0 231 247" data-background-color="#f97316" preserveAspectRatio="xMidYMid meet" height="2138" width="2000" xmlns="http://www.w3.org/2000/svg" xmlns:xlink="http://www.w3.org/1999/xlink"><g id="tight-bounds" transform="matrix(1,0,0,1,-0.18152775640163554,-0.09999999999999432)"><svg viewBox="0 0 231.3630555128033 247.2" height="247.2" width="231.3630555128033"><g><svg viewBox="0 0 231.3630555128033 247.2" height="247.2" width="231.3630555128033"><g><svg viewBox="0 0 395.52000000000004 422.59358903820066" height="247.2" width="231.3630555128033"><g transform="matrix(1,0,0,1,0,255.43270642370476)"><svg viewBox="0 0 395.52000000000004 167.16088261449588" height="167.16088261449588" width="395.52000000000004"><g id="textblocktransform"><svg viewBox="0 0 395.52000000000004 167.16088261449588" height="167.16088261449588" width="395.52000000000004" id="textblock"><g><svg viewBox="0 0 395.52000000000004 103.42587408491946" height="103.42587408491946" width="395.52000000000004"><g transform="matrix(1,0,0,1,0,0)"><svg width="395.52000000000004" viewBox="2.35 -35.65 170.74 44.65" height="103.42587408491946" data-palette-color="#fde047"><path d="M15.55 0.4Q7.3 0.4 2.35-4.05L2.35-4.05 3.95-7.2Q6.55-5 9.28-4.05 12-3.1 15.6-3.1L15.6-3.1Q19.85-3.1 22.15-4.75 24.45-6.4 24.45-9.4L24.45-9.4Q24.45-11.15 23.35-12.25 22.25-13.35 20.45-14 18.65-14.65 15.6-15.35L15.6-15.35Q11.5-16.3 8.88-17.35 6.25-18.4 4.63-20.35 3-22.3 3-25.45L3-25.45Q3-28.45 4.58-30.78 6.15-33.1 9.08-34.38 12-35.65 15.85-35.65L15.85-35.65Q19.5-35.65 22.68-34.5 25.85-33.35 28.05-31.2L28.05-31.2 26.5-28.05Q24-30.2 21.43-31.18 18.85-32.15 15.85-32.15L15.85-32.15Q11.75-32.15 9.43-30.43 7.1-28.7 7.1-25.6L7.1-25.6Q7.1-22.95 9.15-21.6 11.2-20.25 15.35-19.3L15.35-19.3Q19.9-18.2 22.5-17.28 25.1-16.35 26.83-14.5 28.55-12.65 28.55-9.55L28.55-9.55Q28.55-6.55 26.98-4.3 25.4-2.05 22.45-0.83 19.5 0.4 15.55 0.4L15.55 0.4ZM46.85-24.95Q55.6-24.95 55.6-15.3L55.6-15.3 55.6 0 51.55 0 51.55-15.05Q51.55-18.45 50.22-20 48.9-21.55 46-21.55L46-21.55Q42.65-21.55 40.65-19.5 38.65-17.45 38.65-13.95L38.65-13.95 38.65 0 34.6 0 34.6-24.35 38.6-24.35 38.6-20.35Q39.8-22.6 41.95-23.78 44.1-24.95 46.85-24.95L46.85-24.95ZM72.9-24.95Q77.55-24.95 79.82-22.58 82.09-20.2 82.09-15.35L82.09-15.35 82.09 0 78.15 0 78.15-4.15Q77.2-2 75.25-0.83 73.3 0.35 70.75 0.35L70.75 0.35Q68.4 0.35 66.42-0.6 64.45-1.55 63.3-3.25 62.15-4.95 62.15-7L62.15-7Q62.15-9.75 63.55-11.28 64.95-12.8 68.15-13.48 71.34-14.15 77.05-14.15L77.05-14.15 78.15-14.15 78.15-15.8Q78.15-18.85 76.9-20.23 75.65-21.6 72.84-21.6L72.84-21.6Q68.65-21.6 64.5-19L64.5-19 63.15-21.95Q65.05-23.3 67.72-24.13 70.4-24.95 72.9-24.95L72.9-24.95ZM71.3-2.85Q74.3-2.85 76.22-4.88 78.15-6.9 78.15-10.1L78.15-10.1 78.15-11.55 77.25-11.55Q72.84-11.55 70.55-11.18 68.25-10.8 67.27-9.93 66.3-9.05 66.3-7.35L66.3-7.35Q66.3-5.4 67.72-4.13 69.15-2.85 71.3-2.85L71.3-2.85ZM101.74-24.95Q104.94-24.95 107.39-23.35 109.84-21.75 111.19-18.88 112.54-16 112.54-12.2L112.54-12.2Q112.54-8.4 111.19-5.58 109.84-2.75 107.42-1.2 104.99 0.35 101.74 0.35L101.74 0.35Q98.89 0.35 96.77-0.9 94.64-2.15 93.54-4.45L93.54-4.45 93.54 9 89.49 9 89.49-24.35 93.54-24.35 93.54-20.15Q94.64-22.45 96.77-23.7 98.89-24.95 101.74-24.95L101.74-24.95ZM100.94-3Q104.49-3 106.44-5.4 108.39-7.8 108.39-12.2L108.39-12.2Q108.39-16.6 106.44-19.07 104.49-21.55 100.94-21.55L100.94-21.55Q97.39-21.55 95.47-19.15 93.54-16.75 93.54-12.3L93.54-12.3Q93.54-7.85 95.47-5.43 97.39-3 100.94-3L100.94-3ZM128.89 0.35Q125.29 0.35 122.64-1.2 119.99-2.75 118.56-5.58 117.14-8.4 117.14-12.2L117.14-12.2Q117.14-16 118.62-18.88 120.09-21.75 122.77-23.35 125.44-24.95 129.04-24.95L129.04-24.95Q131.49-24.95 133.84-24.08 136.19-23.2 137.64-21.75L137.64-21.75 136.29-18.75Q132.84-21.55 129.29-21.55L129.29-21.55Q125.54-21.55 123.44-19.1 121.34-16.65 121.34-12.2L121.34-12.2Q121.34-7.8 123.44-5.4 125.54-3 129.29-3L129.29-3Q132.84-3 136.29-5.8L136.29-5.8 137.64-2.8Q136.09-1.35 133.74-0.5 131.39 0.35 128.89 0.35L128.89 0.35ZM152.44-24.95Q157.09-24.95 159.36-22.58 161.64-20.2 161.64-15.35L161.64-15.35 161.64 0 157.69 0 157.69-4.15Q156.74-2 154.79-0.83 152.84 0.35 150.29 0.35L150.29 0.35Q147.94 0.35 145.96-0.6 143.99-1.55 142.84-3.25 141.69-4.95 141.69-7L141.69-7Q141.69-9.75 143.09-11.28 144.49-12.8 147.69-13.48 150.89-14.15 156.59-14.15L156.59-14.15 157.69-14.15 157.69-15.8Q157.69-18.85 156.44-20.23 155.19-21.6 152.39-21.6L152.39-21.6Q148.19-21.6 144.04-19L144.04-19 142.69-21.95Q144.59-23.3 147.26-24.13 149.94-24.95 152.44-24.95L152.44-24.95ZM150.84-2.85Q153.84-2.85 155.76-4.88 157.69-6.9 157.69-10.1L157.69-10.1 157.69-11.55 156.79-11.55Q152.39-11.55 150.09-11.18 147.79-10.8 146.81-9.93 145.84-9.05 145.84-7.35L145.84-7.35Q145.84-5.4 147.26-4.13 148.69-2.85 150.84-2.85L150.84-2.85ZM173.09 0L169.04 0 169.04-35.25 173.09-35.25 173.09 0Z" opacity="1" transform="matrix(1,0,0,1,0,0)" fill="#fde047" class="wordmark-text-0" data-fill-palette-color="primary" id="text-0"></path></svg></g></svg></g><g transform="matrix(1,0,0,1,0,127.8422407353909)"><svg viewBox="0 0 395.52000000000004 39.31864187910497" height="39.31864187910497" width="395.52000000000004"><g transform="matrix(1,0,0,1,0,0)"><svg width="395.52000000000004" viewBox="2.35 -35.65 449.09999999999997 44.65" height="39.31864187910497" data-palette-color="#fde047"><path d="M15.55 0.4Q7.3 0.4 2.35-4.05L2.35-4.05 3.95-7.2Q6.55-5 9.28-4.05 12-3.1 15.6-3.1L15.6-3.1Q19.85-3.1 22.15-4.75 24.45-6.4 24.45-9.4L24.45-9.4Q24.45-11.15 23.35-12.25 22.25-13.35 20.45-14 18.65-14.65 15.6-15.35L15.6-15.35Q11.5-16.3 8.88-17.35 6.25-18.4 4.63-20.35 3-22.3 3-25.45L3-25.45Q3-28.45 4.58-30.78 6.15-33.1 9.08-34.38 12-35.65 15.85-35.65L15.85-35.65Q19.5-35.65 22.68-34.5 25.85-33.35 28.05-31.2L28.05-31.2 26.5-28.05Q24-30.2 21.43-31.18 18.85-32.15 15.85-32.15L15.85-32.15Q11.75-32.15 9.43-30.43 7.1-28.7 7.1-25.6L7.1-25.6Q7.1-22.95 9.15-21.6 11.2-20.25 15.35-19.3L15.35-19.3Q19.9-18.2 22.5-17.28 25.1-16.35 26.83-14.5 28.55-12.65 28.55-9.55L28.55-9.55Q28.55-6.55 26.98-4.3 25.4-2.05 22.45-0.83 19.5 0.4 15.55 0.4L15.55 0.4ZM46.85-24.95Q55.6-24.95 55.6-15.3L55.6-15.3 55.6 0 51.55 0 51.55-15.05Q51.55-18.45 50.22-20 48.9-21.55 46-21.55L46-21.55Q42.65-21.55 40.65-19.5 38.65-17.45 38.65-13.95L38.65-13.95 38.65 0 34.6 0 34.6-24.35 38.6-24.35 38.6-20.35Q39.8-22.6 41.95-23.78 44.1-24.95 46.85-24.95L46.85-24.95ZM72.9-24.95Q77.55-24.95 79.82-22.58 82.09-20.2 82.09-15.35L82.09-15.35 82.09 0 78.15 0 78.15-4.15Q77.2-2 75.25-0.83 73.3 0.35 70.75 0.35L70.75 0.35Q68.4 0.35 66.42-0.6 64.45-1.55 63.3-3.25 62.15-4.95 62.15-7L62.15-7Q62.15-9.75 63.55-11.28 64.95-12.8 68.15-13.48 71.34-14.15 77.05-14.15L77.05-14.15 78.15-14.15 78.15-15.8Q78.15-18.85 76.9-20.23 75.65-21.6 72.84-21.6L72.84-21.6Q68.65-21.6 64.5-19L64.5-19 63.15-21.95Q65.05-23.3 67.72-24.13 70.4-24.95 72.9-24.95L72.9-24.95ZM71.3-2.85Q74.3-2.85 76.22-4.88 78.15-6.9 78.15-10.1L78.15-10.1 78.15-11.55 77.25-11.55Q72.84-11.55 70.55-11.18 68.25-10.8 67.27-9.93 66.3-9.05 66.3-7.35L66.3-7.35Q66.3-5.4 67.72-4.13 69.15-2.85 71.3-2.85L71.3-2.85ZM101.74-24.95Q104.94-24.95 107.39-23.35 109.84-21.75 111.19-18.88 112.54-16 112.54-12.2L112.54-12.2Q112.54-8.4 111.19-5.58 109.84-2.75 107.42-1.2 104.99 0.35 101.74 0.35L101.74 0.35Q98.89 0.35 96.77-0.9 94.64-2.15 93.54-4.45L93.54-4.45 93.54 9 89.49 9 89.49-24.35 93.54-24.35 93.54-20.15Q94.64-22.45 96.77-23.7 98.89-24.95 101.74-24.95L101.74-24.95ZM100.94-3Q104.49-3 106.44-5.4 108.39-7.8 108.39-12.2L108.39-12.2Q108.39-16.6 106.44-19.07 104.49-21.55 100.94-21.55L100.94-21.55Q97.39-21.55 95.47-19.15 93.54-16.75 93.54-12.3L93.54-12.3Q93.54-7.85 95.47-5.43 97.39-3 100.94-3L100.94-3ZM117.14-5.1L122.24-5.1 122.24-1.5Q122.24 0.6 121.57 2.33 120.89 4.05 119.24 5.7L119.24 5.7 117.34 4.25Q119.29 2.1 119.54 0L119.54 0 117.14 0 117.14-5.1ZM153.89 0.4Q145.64 0.4 140.69-4.05L140.69-4.05 142.28-7.2Q144.89-5 147.61-4.05 150.34-3.1 153.94-3.1L153.94-3.1Q158.19-3.1 160.49-4.75 162.79-6.4 162.79-9.4L162.79-9.4Q162.79-11.15 161.69-12.25 160.59-13.35 158.79-14 156.99-14.65 153.94-15.35L153.94-15.35Q149.84-16.3 147.21-17.35 144.59-18.4 142.96-20.35 141.34-22.3 141.34-25.45L141.34-25.45Q141.34-28.45 142.91-30.78 144.49-33.1 147.41-34.38 150.34-35.65 154.19-35.65L154.19-35.65Q157.84-35.65 161.01-34.5 164.19-33.35 166.39-31.2L166.39-31.2 164.84-28.05Q162.34-30.2 159.76-31.18 157.19-32.15 154.19-32.15L154.19-32.15Q150.09-32.15 147.76-30.43 145.44-28.7 145.44-25.6L145.44-25.6Q145.44-22.95 147.49-21.6 149.53-20.25 153.69-19.3L153.69-19.3Q158.24-18.2 160.84-17.28 163.44-16.35 165.16-14.5 166.89-12.65 166.89-9.55L166.89-9.55Q166.89-6.55 165.31-4.3 163.74-2.05 160.79-0.83 157.84 0.4 153.89 0.4L153.89 0.4ZM181.83-4.4L190.08-24.3 194.13-24.3 179.73 9 175.58 9 179.68-0.3 169.38-24.3 173.68-24.3 181.83-4.4ZM210.58-24.95Q219.33-24.95 219.33-15.3L219.33-15.3 219.33 0 215.28 0 215.28-15.05Q215.28-18.45 213.95-20 212.63-21.55 209.73-21.55L209.73-21.55Q206.38-21.55 204.38-19.5 202.38-17.45 202.38-13.95L202.38-13.95 202.38 0 198.33 0 198.33-24.35 202.33-24.35 202.33-20.35Q203.53-22.6 205.68-23.78 207.83-24.95 210.58-24.95L210.58-24.95ZM237.03 0.35Q233.43 0.35 230.78-1.2 228.13-2.75 226.7-5.58 225.28-8.4 225.28-12.2L225.28-12.2Q225.28-16 226.75-18.88 228.23-21.75 230.9-23.35 233.58-24.95 237.18-24.95L237.18-24.95Q239.63-24.95 241.98-24.08 244.33-23.2 245.78-21.75L245.78-21.75 244.43-18.75Q240.98-21.55 237.43-21.55L237.43-21.55Q233.68-21.55 231.58-19.1 229.48-16.65 229.48-12.2L229.48-12.2Q229.48-7.8 231.58-5.4 233.68-3 237.43-3L237.43-3Q240.98-3 244.43-5.8L244.43-5.8 245.78-2.8Q244.23-1.35 241.88-0.5 239.53 0.35 237.03 0.35L237.03 0.35ZM250.58-5.1L255.68-5.1 255.68-1.5Q255.68 0.6 255 2.33 254.33 4.05 252.68 5.7L252.68 5.7 250.78 4.25Q252.73 2.1 252.98 0L252.98 0 250.58 0 250.58-5.1ZM287.32 0.4Q279.07 0.4 274.12-4.05L274.12-4.05 275.72-7.2Q278.32-5 281.04-4.05 283.77-3.1 287.37-3.1L287.37-3.1Q291.62-3.1 293.92-4.75 296.22-6.4 296.22-9.4L296.22-9.4Q296.22-11.15 295.12-12.25 294.02-13.35 292.22-14 290.42-14.65 287.37-15.35L287.37-15.35Q283.27-16.3 280.64-17.35 278.02-18.4 276.39-20.35 274.77-22.3 274.77-25.45L274.77-25.45Q274.77-28.45 276.34-30.78 277.92-33.1 280.84-34.38 283.77-35.65 287.62-35.65L287.62-35.65Q291.27-35.65 294.44-34.5 297.62-33.35 299.82-31.2L299.82-31.2 298.27-28.05Q295.77-30.2 293.19-31.18 290.62-32.15 287.62-32.15L287.62-32.15Q283.52-32.15 281.19-30.43 278.87-28.7 278.87-25.6L278.87-25.6Q278.87-22.95 280.92-21.6 282.97-20.25 287.12-19.3L287.12-19.3Q291.67-18.2 294.27-17.28 296.87-16.35 298.59-14.5 300.32-12.65 300.32-9.55L300.32-9.55Q300.32-6.55 298.75-4.3 297.17-2.05 294.22-0.83 291.27 0.4 287.32 0.4L287.32 0.4ZM310.42 0L306.37 0 306.37-24.35 310.42-24.35 310.42 0ZM305.97-30.35L305.97-34.9 310.87-34.9 310.87-30.35 305.97-30.35ZM345.07-24.95Q353.17-24.95 353.17-15.3L353.17-15.3 353.17 0 349.12 0 349.12-15.1Q349.12-18.45 347.94-20 346.77-21.55 344.17-21.55L344.17-21.55Q341.12-21.55 339.37-19.5 337.62-17.45 337.62-13.9L337.62-13.9 337.62 0 333.57 0 333.57-15.1Q333.57-18.5 332.37-20.03 331.17-21.55 328.57-21.55L328.57-21.55Q325.52-21.55 323.77-19.5 322.02-17.45 322.02-13.9L322.02-13.9 322.02 0 317.97 0 317.97-24.35 321.97-24.35 321.97-20.5Q323.07-22.65 325.02-23.8 326.97-24.95 329.52-24.95L329.52-24.95Q335.17-24.95 336.97-20.15L336.97-20.15Q338.02-22.4 340.17-23.68 342.32-24.95 345.07-24.95L345.07-24.95ZM372.81-24.95Q376.01-24.95 378.46-23.35 380.91-21.75 382.26-18.88 383.61-16 383.61-12.2L383.61-12.2Q383.61-8.4 382.26-5.58 380.91-2.75 378.49-1.2 376.06 0.35 372.81 0.35L372.81 0.35Q369.96 0.35 367.84-0.9 365.71-2.15 364.61-4.45L364.61-4.45 364.61 9 360.56 9 360.56-24.35 364.61-24.35 364.61-20.15Q365.71-22.45 367.84-23.7 369.96-24.95 372.81-24.95L372.81-24.95ZM372.01-3Q375.56-3 377.51-5.4 379.46-7.8 379.46-12.2L379.46-12.2Q379.46-16.6 377.51-19.07 375.56-21.55 372.01-21.55L372.01-21.55Q368.46-21.55 366.54-19.15 364.61-16.75 364.61-12.3L364.61-12.3Q364.61-7.85 366.54-5.43 368.46-3 372.01-3L372.01-3ZM393.71 0L389.66 0 389.66-35.25 393.71-35.25 393.71 0ZM405.31 0L401.26 0 401.26-24.35 405.31-24.35 405.31 0ZM400.86-30.35L400.86-34.9 405.76-34.9 405.76-30.35 400.86-30.35ZM418.26-25.7L418.26-24.35 425.16-24.35 425.16-21.15 418.26-21.15 418.26 0 414.21 0 414.21-21.15 409.46-21.15 409.46-24.35 414.21-24.35 414.21-25.15Q414.21-30 416.63-32.5 419.06-35 424.11-35.3L424.11-35.3 426.11-35.4 426.41-32.25 424.11-32.1Q421.06-31.9 419.66-30.38 418.26-28.85 418.26-25.7L418.26-25.7ZM439.15-4.4L447.4-24.3 451.45-24.3 437.05 9 432.9 9 437-0.3 426.7-24.3 431-24.3 439.15-4.4Z" opacity="1" transform="matrix(1,0,0,1,0,0)" fill="#fde047" class="slogan-text-1" data-fill-palette-color="secondary" id="text-1"></path></svg></g></svg></g></svg></g></svg></g><g transform="matrix(1,0,0,1,94.09593381827877,0)"><svg viewBox="0 0 207.3281323634425 231.0163397732333" height="231.0163397732333" width="207.3281323634425"><g><svg xmlns="http://www.w3.org/2000/svg" xmlns:xlink="http://www.w3.org/1999/xlink" version="1.1" x="8" y="0" viewBox="18.75 14.341999999999999 42.5 51.316" enable-background="new 0 0 80 80" xml:space="preserve" height="231.0163397732333" width="191.3281323634425" class="icon-icon-0" data-fill-palette-color="accent" id="icon-0"><g fill="#fcd34d" data-fill-palette-color="accent"><path d="M53.06 18.592v-2.25c0-1.104-0.896-2-2-2s-2 0.896-2 2v1.816H31.372v-1.816c0-1.104-0.896-2-2-2s-2 0.896-2 2v2.139c-4.938 1.188-8.622 5.631-8.622 10.928v2.261h42.5v-2.261C61.25 24.267 57.778 19.93 53.06 18.592zM40 28.675c-1.653 0-3-1.346-3-3s1.347-3 3-3 3 1.346 3 3S41.653 28.675 40 28.675z" fill="#fcd34d" data-fill-palette-color="accent"></path><path d="M18.75 54.408c0 6.203 5.047 11.25 11.25 11.25h20c6.203 0 11.25-5.047 11.25-11.25V35.67h-42.5V54.408zM37.854 60.088l-0.579 1.466c-0.144 0.364-0.493 0.587-0.862 0.587-0.113 0-0.229-0.021-0.34-0.064-0.477-0.188-0.71-0.727-0.522-1.203l0.578-1.466c0.188-0.476 0.726-0.708 1.202-0.522C37.808 59.073 38.041 59.611 37.854 60.088zM52.171 55.119C52.024 55.48 51.678 55.7 51.31 55.7c-0.114 0-0.23-0.021-0.344-0.065l-1.464-0.587c-0.476-0.19-0.706-0.73-0.516-1.206 0.19-0.475 0.729-0.705 1.205-0.516l1.464 0.587C52.13 54.104 52.36 54.643 52.171 55.119zM49.397 45.76l1.449-0.617c0.472-0.201 1.015 0.018 1.215 0.49 0.201 0.471-0.019 1.015-0.488 1.215l-1.451 0.617c-0.117 0.051-0.24 0.074-0.362 0.074-0.36 0-0.702-0.211-0.853-0.564C48.706 46.505 48.927 45.96 49.397 45.76zM45.56 61.918c-0.12 0.051-0.245 0.076-0.368 0.076-0.358 0-0.7-0.209-0.851-0.56l-0.625-1.448c-0.203-0.47 0.014-1.016 0.482-1.219 0.471-0.203 1.016 0.014 1.219 0.484l0.625 1.447C46.245 61.17 46.028 61.715 45.56 61.918zM43.497 40.955l0.592-1.459c0.191-0.476 0.73-0.705 1.205-0.512 0.475 0.191 0.704 0.732 0.512 1.206l-0.591 1.46c-0.146 0.361-0.493 0.579-0.858 0.579-0.116 0-0.234-0.021-0.348-0.067C43.534 41.97 43.306 41.43 43.497 40.955zM39.618 45.62c0.559-0.829 1.613-1.229 2.607-0.9S43.828 46 43.781 47l0.006-0.002 0.137 5.439-7.617-2.596 3.308-4.225L39.618 45.62zM35.812 39.043c0.471-0.199 1.016 0.024 1.213 0.496l0.608 1.453c0.198 0.472-0.023 1.015-0.495 1.212-0.117 0.05-0.24 0.072-0.359 0.072-0.361 0-0.705-0.214-0.854-0.568l-0.609-1.452C35.117 39.783 35.339 39.24 35.812 39.043zM34.797 51.986c0.072-0.217 0.183-0.408 0.308-0.586l8.846 3.014c-0.01 0.189-0.035 0.381-0.098 0.57-0.396 1.197-1.691 1.848-2.889 1.453 0 0 0 0-0.002 0l-4.738-1.57v-0.003C35.044 54.459 34.403 53.175 34.797 51.986zM31.902 55.343l-1.444 0.632c-0.12 0.053-0.247 0.078-0.37 0.078-0.357 0-0.698-0.207-0.85-0.557-0.206-0.469 0.009-1.015 0.478-1.219l1.445-0.633c0.47-0.207 1.015 0.011 1.219 0.479C32.586 54.592 32.371 55.139 31.902 55.343zM29.129 45.774c0.195-0.473 0.74-0.696 1.21-0.504l1.455 0.6c0.473 0.196 0.699 0.737 0.504 1.21-0.147 0.357-0.493 0.574-0.857 0.574-0.117 0-0.237-0.023-0.353-0.07l-1.455-0.6C29.159 46.789 28.935 46.248 29.129 45.774z" fill="#fcd34d" data-fill-palette-color="accent"></path></g></svg></g></svg></g><g><rect width="12.017461574680397" height="9.327052060480092" y="220.68928771275324" x="301.4240661817213" fill="#fcd34d" data-fill-palette-color="accent"></rect><rect width="12.017461574680397" height="9.327052060480092" y="220.68928771275324" x="82.07847224359837" fill="#fcd34d" data-fill-palette-color="accent"></rect><rect width="12.017461574680397" height="9.327052060480092" y="202.03518359179304" x="301.4240661817213" fill="#fcd34d" data-fill-palette-color="accent"></rect><rect width="12.017461574680397" height="9.327052060480092" y="202.03518359179304" x="82.07847224359837" fill="#fcd34d" data-fill-palette-color="accent"></rect></g></svg></g></svg></g><defs></defs></svg><rect width="231.3630555128033" height="247.2" fill="none" stroke="none" visibility="hidden"></rect></g></svg></g></svg>